<svg width="87" height="59" viewBox="0 0 87 59" fill="none" xmlns="http://www.w3.org/2000/svg">
<rect x="1" y="1" width="84.3097" height="56.2065" rx="8.30323" fill="white"/>
<rect x="0.5" y="0.5" width="85.3097" height="57.2065" rx="8.80323" stroke="black" stroke-opacity="0.03"/>
<circle cx="69.2242" cy="8.54687" r="1.15976" fill="#28C840"/>
<path d="M72.7811 7.68593V9.22843H73.1568V9.38712H72.1697V9.22843H72.5921V7.84461H72.1697V7.68593H72.7811ZM73.9646 7.9893V7.75594H74.198V7.9893H73.9646ZM74.177 8.16432V9.22843H74.5527V9.38712H73.5656V9.22843H73.9856V8.323H73.5656V8.16432H74.177ZM76.0582 8.16432L75.6102 9.38712H75.3955L74.9474 8.16432H75.1551L75.5075 9.15376L75.8575 8.16432H76.0582ZM77.4774 9.00907C77.4572 9.13664 77.4004 9.23854 77.3071 9.31477C77.2153 9.391 77.0978 9.42912 76.9547 9.42912C76.8318 9.42912 76.7291 9.40189 76.6467 9.34744C76.5642 9.29144 76.502 9.21521 76.46 9.11875C76.4195 9.0223 76.3993 8.91184 76.3993 8.78738C76.3993 8.65048 76.4227 8.53302 76.4693 8.43501C76.516 8.337 76.5813 8.26155 76.6654 8.20865C76.7494 8.1542 76.8474 8.12698 76.9594 8.12698C77.0854 8.12698 77.1881 8.15654 77.2674 8.21565C77.3483 8.27477 77.4074 8.35723 77.4448 8.46301C77.4837 8.5688 77.5031 8.69248 77.5031 8.83406H76.6023C76.6055 8.95385 76.6366 9.05341 76.6957 9.13275C76.7548 9.21054 76.8435 9.24943 76.9617 9.24943C77.122 9.24943 77.2285 9.16931 77.2814 9.00907H77.4774ZM76.9571 8.30666C76.8481 8.30666 76.7649 8.34245 76.7074 8.41401C76.6498 8.48557 76.6163 8.57269 76.607 8.67537H77.2931C77.2931 8.60692 77.2791 8.54547 77.2511 8.49102C77.2246 8.43501 77.1865 8.39067 77.1367 8.358C77.087 8.32378 77.0271 8.30666 76.9571 8.30666Z" fill="black"/>
<circle cx="7.58872" cy="8.72774" r="1.47911" fill="#FF0000"/>
<circle cx="13.1353" cy="8.72771" r="1.47911" fill="#FEBC2E"/>
<circle cx="13.1353" cy="8.72771" r="1.47911" fill="#FEBC2E"/>
<circle cx="18.6821" cy="8.72771" r="1.47911" fill="#28C840"/>
<rect x="6.10959" y="14.4129" width="74.729" height="38.3226" rx="4.47097" fill="#EEEEEE"/>
<rect x="11.858" y="23.3548" width="23.6323" height="3.83226" rx="1.91613" fill="#DFDFDF"/>
<rect x="51.458" y="21.4387" width="23.6323" height="24.9097" rx="4.47097" fill="#DFDFDF"/>
<rect x="11.858" y="29.7419" width="15.9677" height="3.19355" rx="1.59677" fill="#DFDFDF"/>
<rect x="11.858" y="34.8516" width="15.9677" height="3.19355" rx="1.59677" fill="#DFDFDF"/>
</svg>
