<svg width="87" height="59" viewBox="0 0 87 59" fill="none" xmlns="http://www.w3.org/2000/svg">
<rect x="1.02588" y="1.35486" width="84.3097" height="56.2065" rx="8.30323" fill="white"/>
<rect x="0.525879" y="0.854858" width="85.3097" height="57.2065" rx="8.80323" stroke="black" stroke-opacity="0.03"/>
<circle cx="69.2496" cy="8.90171" r="1.15976" fill="#28C840"/>
<path d="M72.8063 8.04077V9.58327H73.182V9.74196H72.1949V9.58327H72.6173V8.19946H72.1949V8.04077H72.8063ZM73.9898 8.34414V8.11078H74.2232V8.34414H73.9898ZM74.2022 8.51916V9.58327H74.5779V9.74196H73.5908V9.58327H74.0108V8.67784H73.5908V8.51916H74.2022ZM76.0834 8.51916L75.6354 9.74196H75.4207L74.9726 8.51916H75.1803L75.5327 9.5086L75.8827 8.51916H76.0834ZM77.5026 9.36392C77.4824 9.49149 77.4256 9.59339 77.3323 9.66962C77.2405 9.74585 77.123 9.78396 76.9799 9.78396C76.857 9.78396 76.7543 9.75674 76.6719 9.70229C76.5894 9.64628 76.5272 9.57005 76.4852 9.4736C76.4447 9.37714 76.4245 9.26668 76.4245 9.14223C76.4245 9.00532 76.4479 8.88787 76.4945 8.78985C76.5412 8.69184 76.6065 8.61639 76.6905 8.5635C76.7746 8.50905 76.8726 8.48182 76.9846 8.48182C77.1106 8.48182 77.2133 8.51138 77.2926 8.5705C77.3735 8.62961 77.4326 8.71207 77.47 8.81786C77.5089 8.92365 77.5283 9.04733 77.5283 9.1889H76.6275C76.6306 9.30869 76.6618 9.40826 76.7209 9.4876C76.78 9.56538 76.8687 9.60428 76.9869 9.60428C77.1471 9.60428 77.2537 9.52416 77.3066 9.36392H77.5026ZM76.9822 8.66151C76.8733 8.66151 76.7901 8.69729 76.7325 8.76885C76.675 8.84042 76.6415 8.92754 76.6322 9.03021H77.3183C77.3183 8.96176 77.3043 8.90031 77.2763 8.84586C77.2498 8.78985 77.2117 8.74552 77.1619 8.71285C77.1121 8.67862 77.0523 8.66151 76.9822 8.66151Z" fill="black"/>
<circle cx="7.61437" cy="9.08258" r="1.47911" fill="#FF0000"/>
<circle cx="13.1608" cy="9.08255" r="1.47911" fill="#FEBC2E"/>
<circle cx="13.1608" cy="9.08255" r="1.47911" fill="#FEBC2E"/>
<circle cx="18.7076" cy="9.08255" r="1.47911" fill="#28C840"/>
<rect x="6.13525" y="14.7678" width="74.729" height="38.3226" rx="4.47097" fill="#EEEEEE"/>
<rect x="11.8838" y="23.7097" width="23.6323" height="3.83226" rx="1.91613" fill="#DFDFDF"/>
<rect x="51.4834" y="21.7936" width="23.6323" height="24.9097" rx="4.47097" fill="#DFDFDF"/>
<rect x="11.8838" y="30.0968" width="15.9677" height="3.19355" rx="1.59677" fill="#DFDFDF"/>
<rect x="11.8838" y="35.2065" width="15.9677" height="3.19355" rx="1.59677" fill="#DFDFDF"/>
</svg>
